<svg width="36" height="24" viewBox="0 0 36 24" fill="none" xmlns="http://www.w3.org/2000/svg">
<path fill-rule="evenodd" clip-rule="evenodd" d="M2.00033 0C1.6467 0 1.30756 0.140476 1.05752 0.390525C0.807468 0.640573 0.666992 0.979711 0.666992 1.33333C0.666992 1.68696 0.807468 2.02609 1.05752 2.27614C1.30756 2.52619 1.6467 2.66667 2.00033 2.66667H34.0003C34.354 2.66667 34.6931 2.52619 34.9431 2.27614C35.1932 2.02609 35.3337 1.68696 35.3337 1.33333C35.3337 0.979711 35.1932 0.640573 34.9431 0.390525C34.6931 0.140476 34.354 0 34.0003 0H2.00033ZM0.666992 12C0.666992 11.6464 0.807468 11.3072 1.05752 11.0572C1.30756 10.8071 1.6467 10.6667 2.00033 10.6667H34.0003C34.354 10.6667 34.6931 10.8071 34.9431 11.0572C35.1932 11.3072 35.3337 11.6464 35.3337 12C35.3337 12.3536 35.1932 12.6928 34.9431 12.9428C34.6931 13.1929 34.354 13.3333 34.0003 13.3333H2.00033C1.6467 13.3333 1.30756 13.1929 1.05752 12.9428C0.807468 12.6928 0.666992 12.3536 0.666992 12ZM0.666992 22.6667C0.666992 22.313 0.807468 21.9739 1.05752 21.7239C1.30756 21.4738 1.6467 21.3333 2.00033 21.3333H34.0003C34.354 21.3333 34.6931 21.4738 34.9431 21.7239C35.1932 21.9739 35.3337 22.313 35.3337 22.6667C35.3337 23.0203 35.1932 23.3594 34.9431 23.6095C34.6931 23.8595 34.354 24 34.0003 24H2.00033C1.6467 24 1.30756 23.8595 1.05752 23.6095C0.807468 23.3594 0.666992 23.0203 0.666992 22.6667Z" fill="#36A74C"/>
</svg>
